<mxfile host="app.diagrams.net" modified="2024-04-24T16:44:04.021Z" agent="Mozilla/5.0 (X11; Linux x86_64) AppleWebKit/537.36 (KHTML, like Gecko) Chrome/119.0.0.0 Safari/537.36" etag="rflbcgn_u9gfq89Poseo" version="24.0.0" type="github">
  <diagram name="PÃ¡gina-1" id="RPSRm-kFG3JXtGDVLyJk">
    <mxGraphModel dx="934" dy="500" grid="1" gridSize="10" guides="1" tooltips="1" connect="1" arrows="1" fold="1" page="1" pageScale="1" pageWidth="10000" pageHeight="10000" math="0" shadow="0">
      <root>
        <mxCell id="0" />
        <mxCell id="1" parent="0" />
        <mxCell id="mJSx3Dz7f0GuxdMOwKDn-1" value="" style="shape=cube;whiteSpace=wrap;html=1;boundedLbl=1;backgroundOutline=1;darkOpacity=0.05;darkOpacity2=0.1;fillColor=#f8cecc;strokeColor=#b85450;" vertex="1" parent="1">
          <mxGeometry x="290" y="90" width="120" height="80" as="geometry" />
        </mxCell>
        <mxCell id="mJSx3Dz7f0GuxdMOwKDn-2" value="Full" style="text;html=1;align=center;verticalAlign=middle;resizable=0;points=[];autosize=1;strokeColor=none;fillColor=none;" vertex="1" parent="1">
          <mxGeometry x="460" y="115" width="40" height="30" as="geometry" />
        </mxCell>
        <mxCell id="mJSx3Dz7f0GuxdMOwKDn-3" value="" style="shape=cube;whiteSpace=wrap;html=1;boundedLbl=1;backgroundOutline=1;darkOpacity=0.05;darkOpacity2=0.1;fillColor=#d5e8d4;strokeColor=#82b366;" vertex="1" parent="1">
          <mxGeometry x="290" y="260" width="120" height="40" as="geometry" />
        </mxCell>
        <mxCell id="mJSx3Dz7f0GuxdMOwKDn-4" value="Empty&lt;div&gt;Containers&lt;/div&gt;" style="text;html=1;align=center;verticalAlign=middle;resizable=0;points=[];autosize=1;strokeColor=none;fillColor=none;" vertex="1" parent="1">
          <mxGeometry x="435" y="265" width="80" height="40" as="geometry" />
        </mxCell>
        <mxCell id="mJSx3Dz7f0GuxdMOwKDn-289" style="rounded=0;orthogonalLoop=1;jettySize=auto;html=1;exitX=1;exitY=0.75;exitDx=0;exitDy=0;" edge="1" parent="1" source="mJSx3Dz7f0GuxdMOwKDn-8" target="mJSx3Dz7f0GuxdMOwKDn-286">
          <mxGeometry relative="1" as="geometry" />
        </mxCell>
        <mxCell id="mJSx3Dz7f0GuxdMOwKDn-296" value="25" style="edgeLabel;html=1;align=center;verticalAlign=middle;resizable=0;points=[];" vertex="1" connectable="0" parent="mJSx3Dz7f0GuxdMOwKDn-289">
          <mxGeometry x="0.1498" relative="1" as="geometry">
            <mxPoint as="offset" />
          </mxGeometry>
        </mxCell>
        <mxCell id="mJSx3Dz7f0GuxdMOwKDn-291" style="rounded=0;orthogonalLoop=1;jettySize=auto;html=1;exitX=1;exitY=0.25;exitDx=0;exitDy=0;entryX=0;entryY=0.5;entryDx=0;entryDy=0;" edge="1" parent="1" source="mJSx3Dz7f0GuxdMOwKDn-8" target="mJSx3Dz7f0GuxdMOwKDn-284">
          <mxGeometry relative="1" as="geometry" />
        </mxCell>
        <mxCell id="mJSx3Dz7f0GuxdMOwKDn-294" value="50" style="edgeLabel;html=1;align=center;verticalAlign=middle;resizable=0;points=[];" vertex="1" connectable="0" parent="mJSx3Dz7f0GuxdMOwKDn-291">
          <mxGeometry x="-0.1295" y="-2" relative="1" as="geometry">
            <mxPoint as="offset" />
          </mxGeometry>
        </mxCell>
        <mxCell id="mJSx3Dz7f0GuxdMOwKDn-292" style="rounded=0;orthogonalLoop=1;jettySize=auto;html=1;exitX=1;exitY=0.5;exitDx=0;exitDy=0;" edge="1" parent="1" source="mJSx3Dz7f0GuxdMOwKDn-8" target="mJSx3Dz7f0GuxdMOwKDn-285">
          <mxGeometry relative="1" as="geometry" />
        </mxCell>
        <mxCell id="mJSx3Dz7f0GuxdMOwKDn-295" value="25" style="edgeLabel;html=1;align=center;verticalAlign=middle;resizable=0;points=[];" vertex="1" connectable="0" parent="mJSx3Dz7f0GuxdMOwKDn-292">
          <mxGeometry x="0.1282" y="2" relative="1" as="geometry">
            <mxPoint as="offset" />
          </mxGeometry>
        </mxCell>
        <mxCell id="mJSx3Dz7f0GuxdMOwKDn-8" value="" style="shape=image;html=1;verticalAlign=top;verticalLabelPosition=bottom;labelBackgroundColor=#ffffff;imageAspect=0;aspect=fixed;image=https://cdn0.iconfinder.com/data/icons/phosphor-thin-vol-2/256/factory-thin-128.png" vertex="1" parent="1">
          <mxGeometry x="1565" y="160" width="90" height="90" as="geometry" />
        </mxCell>
        <mxCell id="mJSx3Dz7f0GuxdMOwKDn-282" style="edgeStyle=orthogonalEdgeStyle;rounded=0;orthogonalLoop=1;jettySize=auto;html=1;exitX=0.96;exitY=0.626;exitDx=0;exitDy=0;exitPerimeter=0;" edge="1" parent="1" source="mJSx3Dz7f0GuxdMOwKDn-10" target="mJSx3Dz7f0GuxdMOwKDn-36">
          <mxGeometry relative="1" as="geometry" />
        </mxCell>
        <mxCell id="mJSx3Dz7f0GuxdMOwKDn-10" value="" style="verticalLabelPosition=bottom;aspect=fixed;html=1;shape=mxgraph.salesforce.manufacturing;" vertex="1" parent="1">
          <mxGeometry x="1300" y="970" width="140" height="140" as="geometry" />
        </mxCell>
        <mxCell id="mJSx3Dz7f0GuxdMOwKDn-26" value="WareHouse&lt;div&gt;Of&lt;/div&gt;&lt;div&gt;Full&lt;/div&gt;&lt;div&gt;Containers&amp;nbsp;&lt;/div&gt;&lt;div&gt;with&lt;/div&gt;&lt;div&gt;Raw&lt;/div&gt;&lt;div&gt;Materials&lt;/div&gt;" style="text;html=1;align=center;verticalAlign=middle;whiteSpace=wrap;rounded=0;" vertex="1" parent="1">
          <mxGeometry x="820" y="1190" width="100" height="113" as="geometry" />
        </mxCell>
        <mxCell id="mJSx3Dz7f0GuxdMOwKDn-27" value="WareHouse&lt;div&gt;Of&lt;/div&gt;&lt;div&gt;Full&lt;/div&gt;&lt;div&gt;Containers&amp;nbsp;&lt;/div&gt;&lt;div&gt;with&lt;/div&gt;&lt;div&gt;Finished&lt;/div&gt;&lt;div&gt;Goods&lt;/div&gt;" style="text;html=1;align=center;verticalAlign=middle;whiteSpace=wrap;rounded=0;" vertex="1" parent="1">
          <mxGeometry x="1830" y="1200" width="100" height="113" as="geometry" />
        </mxCell>
        <mxCell id="mJSx3Dz7f0GuxdMOwKDn-32" value="" style="group" vertex="1" connectable="0" parent="1">
          <mxGeometry x="1260" y="550" width="240" height="340" as="geometry" />
        </mxCell>
        <mxCell id="mJSx3Dz7f0GuxdMOwKDn-16" value="" style="verticalLabelPosition=bottom;align=center;outlineConnect=0;dashed=0;html=1;verticalAlign=top;shape=mxgraph.pid.flow_sensors.weir;" vertex="1" parent="mJSx3Dz7f0GuxdMOwKDn-32">
          <mxGeometry width="240" height="340" as="geometry" />
        </mxCell>
        <mxCell id="mJSx3Dz7f0GuxdMOwKDn-18" value="" style="shape=cube;whiteSpace=wrap;html=1;boundedLbl=1;backgroundOutline=1;darkOpacity=0.05;darkOpacity2=0.1;fillColor=#d5e8d4;strokeColor=#82b366;" vertex="1" parent="mJSx3Dz7f0GuxdMOwKDn-32">
          <mxGeometry x="60" y="270" width="120" height="40" as="geometry" />
        </mxCell>
        <mxCell id="mJSx3Dz7f0GuxdMOwKDn-19" value="" style="shape=cube;whiteSpace=wrap;html=1;boundedLbl=1;backgroundOutline=1;darkOpacity=0.05;darkOpacity2=0.1;fillColor=#d5e8d4;strokeColor=#82b366;" vertex="1" parent="mJSx3Dz7f0GuxdMOwKDn-32">
          <mxGeometry x="60" y="250" width="120" height="40" as="geometry" />
        </mxCell>
        <mxCell id="mJSx3Dz7f0GuxdMOwKDn-20" value="" style="shape=cube;whiteSpace=wrap;html=1;boundedLbl=1;backgroundOutline=1;darkOpacity=0.05;darkOpacity2=0.1;fillColor=#d5e8d4;strokeColor=#82b366;" vertex="1" parent="mJSx3Dz7f0GuxdMOwKDn-32">
          <mxGeometry x="60" y="230" width="120" height="40" as="geometry" />
        </mxCell>
        <mxCell id="mJSx3Dz7f0GuxdMOwKDn-21" value="" style="shape=cube;whiteSpace=wrap;html=1;boundedLbl=1;backgroundOutline=1;darkOpacity=0.05;darkOpacity2=0.1;fillColor=#d5e8d4;strokeColor=#82b366;" vertex="1" parent="mJSx3Dz7f0GuxdMOwKDn-32">
          <mxGeometry x="60" y="210" width="120" height="40" as="geometry" />
        </mxCell>
        <mxCell id="mJSx3Dz7f0GuxdMOwKDn-22" value="" style="shape=cube;whiteSpace=wrap;html=1;boundedLbl=1;backgroundOutline=1;darkOpacity=0.05;darkOpacity2=0.1;fillColor=#d5e8d4;strokeColor=#82b366;" vertex="1" parent="mJSx3Dz7f0GuxdMOwKDn-32">
          <mxGeometry x="60" y="190" width="120" height="40" as="geometry" />
        </mxCell>
        <mxCell id="mJSx3Dz7f0GuxdMOwKDn-23" value="" style="shape=cube;whiteSpace=wrap;html=1;boundedLbl=1;backgroundOutline=1;darkOpacity=0.05;darkOpacity2=0.1;fillColor=#d5e8d4;strokeColor=#82b366;" vertex="1" parent="mJSx3Dz7f0GuxdMOwKDn-32">
          <mxGeometry x="60" y="170" width="120" height="40" as="geometry" />
        </mxCell>
        <mxCell id="mJSx3Dz7f0GuxdMOwKDn-24" value="" style="shape=cube;whiteSpace=wrap;html=1;boundedLbl=1;backgroundOutline=1;darkOpacity=0.05;darkOpacity2=0.1;fillColor=#d5e8d4;strokeColor=#82b366;" vertex="1" parent="mJSx3Dz7f0GuxdMOwKDn-32">
          <mxGeometry x="60" y="150" width="120" height="40" as="geometry" />
        </mxCell>
        <mxCell id="mJSx3Dz7f0GuxdMOwKDn-25" value="" style="shape=cube;whiteSpace=wrap;html=1;boundedLbl=1;backgroundOutline=1;darkOpacity=0.05;darkOpacity2=0.1;fillColor=#d5e8d4;strokeColor=#82b366;" vertex="1" parent="mJSx3Dz7f0GuxdMOwKDn-32">
          <mxGeometry x="60" y="130" width="120" height="40" as="geometry" />
        </mxCell>
        <mxCell id="mJSx3Dz7f0GuxdMOwKDn-33" value="" style="group" vertex="1" connectable="0" parent="1">
          <mxGeometry x="750" y="1310" width="240" height="340" as="geometry" />
        </mxCell>
        <mxCell id="mJSx3Dz7f0GuxdMOwKDn-42" style="edgeStyle=orthogonalEdgeStyle;rounded=0;orthogonalLoop=1;jettySize=auto;html=1;" edge="1" parent="mJSx3Dz7f0GuxdMOwKDn-33" source="mJSx3Dz7f0GuxdMOwKDn-5">
          <mxGeometry relative="1" as="geometry">
            <mxPoint x="270" y="-70" as="targetPoint" />
          </mxGeometry>
        </mxCell>
        <mxCell id="mJSx3Dz7f0GuxdMOwKDn-5" value="" style="verticalLabelPosition=bottom;align=center;outlineConnect=0;dashed=0;html=1;verticalAlign=top;shape=mxgraph.pid.flow_sensors.weir;" vertex="1" parent="mJSx3Dz7f0GuxdMOwKDn-33">
          <mxGeometry width="240" height="340" as="geometry" />
        </mxCell>
        <mxCell id="mJSx3Dz7f0GuxdMOwKDn-14" value="" style="group" vertex="1" connectable="0" parent="mJSx3Dz7f0GuxdMOwKDn-33">
          <mxGeometry x="70" y="140" width="120" height="190" as="geometry" />
        </mxCell>
        <mxCell id="mJSx3Dz7f0GuxdMOwKDn-11" value="" style="shape=cube;whiteSpace=wrap;html=1;boundedLbl=1;backgroundOutline=1;darkOpacity=0.05;darkOpacity2=0.1;fillColor=#f8cecc;strokeColor=#b85450;" vertex="1" parent="mJSx3Dz7f0GuxdMOwKDn-14">
          <mxGeometry y="110" width="120" height="80" as="geometry" />
        </mxCell>
        <mxCell id="mJSx3Dz7f0GuxdMOwKDn-12" value="" style="shape=cube;whiteSpace=wrap;html=1;boundedLbl=1;backgroundOutline=1;darkOpacity=0.05;darkOpacity2=0.1;fillColor=#f8cecc;strokeColor=#b85450;" vertex="1" parent="mJSx3Dz7f0GuxdMOwKDn-14">
          <mxGeometry y="55" width="120" height="80" as="geometry" />
        </mxCell>
        <mxCell id="mJSx3Dz7f0GuxdMOwKDn-13" value="" style="shape=cube;whiteSpace=wrap;html=1;boundedLbl=1;backgroundOutline=1;darkOpacity=0.05;darkOpacity2=0.1;fillColor=#f8cecc;strokeColor=#b85450;" vertex="1" parent="mJSx3Dz7f0GuxdMOwKDn-14">
          <mxGeometry width="120" height="80" as="geometry" />
        </mxCell>
        <mxCell id="mJSx3Dz7f0GuxdMOwKDn-34" value="" style="group" vertex="1" connectable="0" parent="1">
          <mxGeometry x="1760" y="1300" width="240" height="340" as="geometry" />
        </mxCell>
        <mxCell id="mJSx3Dz7f0GuxdMOwKDn-15" value="" style="verticalLabelPosition=bottom;align=center;outlineConnect=0;dashed=0;html=1;verticalAlign=top;shape=mxgraph.pid.flow_sensors.weir;" vertex="1" parent="mJSx3Dz7f0GuxdMOwKDn-34">
          <mxGeometry width="240" height="340" as="geometry" />
        </mxCell>
        <mxCell id="mJSx3Dz7f0GuxdMOwKDn-28" value="" style="group" vertex="1" connectable="0" parent="mJSx3Dz7f0GuxdMOwKDn-34">
          <mxGeometry x="70" y="130" width="120" height="190" as="geometry" />
        </mxCell>
        <mxCell id="mJSx3Dz7f0GuxdMOwKDn-29" value="" style="shape=cube;whiteSpace=wrap;html=1;boundedLbl=1;backgroundOutline=1;darkOpacity=0.05;darkOpacity2=0.1;fillColor=#f8cecc;strokeColor=#b85450;" vertex="1" parent="mJSx3Dz7f0GuxdMOwKDn-28">
          <mxGeometry y="110" width="120" height="80" as="geometry" />
        </mxCell>
        <mxCell id="mJSx3Dz7f0GuxdMOwKDn-30" value="" style="shape=cube;whiteSpace=wrap;html=1;boundedLbl=1;backgroundOutline=1;darkOpacity=0.05;darkOpacity2=0.1;fillColor=#f8cecc;strokeColor=#b85450;" vertex="1" parent="mJSx3Dz7f0GuxdMOwKDn-28">
          <mxGeometry y="55" width="120" height="80" as="geometry" />
        </mxCell>
        <mxCell id="mJSx3Dz7f0GuxdMOwKDn-31" value="" style="shape=cube;whiteSpace=wrap;html=1;boundedLbl=1;backgroundOutline=1;darkOpacity=0.05;darkOpacity2=0.1;fillColor=#f8cecc;strokeColor=#b85450;" vertex="1" parent="mJSx3Dz7f0GuxdMOwKDn-28">
          <mxGeometry width="120" height="80" as="geometry" />
        </mxCell>
        <mxCell id="mJSx3Dz7f0GuxdMOwKDn-43" style="edgeStyle=orthogonalEdgeStyle;rounded=0;orthogonalLoop=1;jettySize=auto;html=1;entryX=0.01;entryY=0.597;entryDx=0;entryDy=0;entryPerimeter=0;" edge="1" parent="1" source="mJSx3Dz7f0GuxdMOwKDn-35" target="mJSx3Dz7f0GuxdMOwKDn-10">
          <mxGeometry relative="1" as="geometry">
            <Array as="points">
              <mxPoint x="1030" y="1080" />
              <mxPoint x="1250" y="1080" />
              <mxPoint x="1250" y="1054" />
            </Array>
          </mxGeometry>
        </mxCell>
        <mxCell id="mJSx3Dz7f0GuxdMOwKDn-35" value="" style="shape=cube;whiteSpace=wrap;html=1;boundedLbl=1;backgroundOutline=1;darkOpacity=0.05;darkOpacity2=0.1;fillColor=#f8cecc;strokeColor=#b85450;" vertex="1" parent="1">
          <mxGeometry x="950" y="1150" width="120" height="80" as="geometry" />
        </mxCell>
        <mxCell id="mJSx3Dz7f0GuxdMOwKDn-49" style="edgeStyle=orthogonalEdgeStyle;rounded=0;orthogonalLoop=1;jettySize=auto;html=1;" edge="1" parent="1" source="mJSx3Dz7f0GuxdMOwKDn-36" target="mJSx3Dz7f0GuxdMOwKDn-15">
          <mxGeometry relative="1" as="geometry">
            <mxPoint x="1750" y="1480.0000000000002" as="targetPoint" />
            <Array as="points">
              <mxPoint x="1680" y="1450" />
            </Array>
          </mxGeometry>
        </mxCell>
        <mxCell id="mJSx3Dz7f0GuxdMOwKDn-36" value="" style="shape=cube;whiteSpace=wrap;html=1;boundedLbl=1;backgroundOutline=1;darkOpacity=0.05;darkOpacity2=0.1;fillColor=#f8cecc;strokeColor=#b85450;" vertex="1" parent="1">
          <mxGeometry x="1620" y="1130" width="120" height="80" as="geometry" />
        </mxCell>
        <mxCell id="mJSx3Dz7f0GuxdMOwKDn-45" style="edgeStyle=orthogonalEdgeStyle;rounded=0;orthogonalLoop=1;jettySize=auto;html=1;" edge="1" parent="1" source="mJSx3Dz7f0GuxdMOwKDn-37" target="mJSx3Dz7f0GuxdMOwKDn-16">
          <mxGeometry relative="1" as="geometry" />
        </mxCell>
        <mxCell id="mJSx3Dz7f0GuxdMOwKDn-37" value="" style="shape=cube;whiteSpace=wrap;html=1;boundedLbl=1;backgroundOutline=1;darkOpacity=0.05;darkOpacity2=0.1;fillColor=#d5e8d4;strokeColor=#82b366;" vertex="1" parent="1">
          <mxGeometry x="1040" y="870" width="120" height="40" as="geometry" />
        </mxCell>
        <mxCell id="mJSx3Dz7f0GuxdMOwKDn-281" style="edgeStyle=orthogonalEdgeStyle;rounded=0;orthogonalLoop=1;jettySize=auto;html=1;" edge="1" parent="1" source="mJSx3Dz7f0GuxdMOwKDn-38" target="mJSx3Dz7f0GuxdMOwKDn-10">
          <mxGeometry relative="1" as="geometry">
            <Array as="points">
              <mxPoint x="1660" y="1020" />
            </Array>
          </mxGeometry>
        </mxCell>
        <mxCell id="mJSx3Dz7f0GuxdMOwKDn-38" value="" style="shape=cube;whiteSpace=wrap;html=1;boundedLbl=1;backgroundOutline=1;darkOpacity=0.05;darkOpacity2=0.1;fillColor=#d5e8d4;strokeColor=#82b366;" vertex="1" parent="1">
          <mxGeometry x="1600" y="860" width="120" height="40" as="geometry" />
        </mxCell>
        <mxCell id="mJSx3Dz7f0GuxdMOwKDn-39" value="Warehouse&lt;div&gt;of&lt;/div&gt;&lt;div&gt;Empty&lt;/div&gt;&lt;div&gt;Containers&lt;/div&gt;" style="text;html=1;align=center;verticalAlign=middle;resizable=0;points=[];autosize=1;strokeColor=none;fillColor=none;" vertex="1" parent="1">
          <mxGeometry x="1330" y="485" width="80" height="70" as="geometry" />
        </mxCell>
        <mxCell id="mJSx3Dz7f0GuxdMOwKDn-44" style="edgeStyle=orthogonalEdgeStyle;rounded=0;orthogonalLoop=1;jettySize=auto;html=1;entryX=0;entryY=0;entryDx=70;entryDy=40;entryPerimeter=0;exitX=0.002;exitY=0.4;exitDx=0;exitDy=0;exitPerimeter=0;" edge="1" parent="1" source="mJSx3Dz7f0GuxdMOwKDn-10" target="mJSx3Dz7f0GuxdMOwKDn-37">
          <mxGeometry relative="1" as="geometry">
            <mxPoint x="1340" y="1010" as="sourcePoint" />
          </mxGeometry>
        </mxCell>
        <mxCell id="mJSx3Dz7f0GuxdMOwKDn-46" style="edgeStyle=orthogonalEdgeStyle;rounded=0;orthogonalLoop=1;jettySize=auto;html=1;" edge="1" parent="1" source="mJSx3Dz7f0GuxdMOwKDn-16" target="mJSx3Dz7f0GuxdMOwKDn-38">
          <mxGeometry relative="1" as="geometry" />
        </mxCell>
        <mxCell id="mJSx3Dz7f0GuxdMOwKDn-50" value="Consumption&lt;div&gt;of raw materials of&amp;nbsp;&lt;/div&gt;&lt;div&gt;Full Co&lt;span style=&quot;background-color: initial;&quot;&gt;ntainers&lt;/span&gt;&lt;/div&gt;" style="text;html=1;align=center;verticalAlign=middle;resizable=0;points=[];autosize=1;strokeColor=none;fillColor=none;" vertex="1" parent="1">
          <mxGeometry x="1150" y="1090" width="120" height="60" as="geometry" />
        </mxCell>
        <mxCell id="mJSx3Dz7f0GuxdMOwKDn-51" value="Production&lt;div&gt;of raw materials of&amp;nbsp;&lt;/div&gt;&lt;div&gt;Full Co&lt;span style=&quot;background-color: initial;&quot;&gt;ntainers&lt;/span&gt;&lt;/div&gt;" style="text;html=1;align=center;verticalAlign=middle;resizable=0;points=[];autosize=1;strokeColor=none;fillColor=none;" vertex="1" parent="1">
          <mxGeometry x="1690" y="1030" width="120" height="60" as="geometry" />
        </mxCell>
        <mxCell id="mJSx3Dz7f0GuxdMOwKDn-112" value="" style="group" vertex="1" connectable="0" parent="1">
          <mxGeometry x="2160" y="1440" width="325.5" height="217" as="geometry" />
        </mxCell>
        <mxCell id="mJSx3Dz7f0GuxdMOwKDn-98" value="" style="verticalLabelPosition=bottom;outlineConnect=0;align=center;dashed=0;html=1;verticalAlign=top;shape=mxgraph.pid.misc.box_truck;" vertex="1" parent="mJSx3Dz7f0GuxdMOwKDn-112">
          <mxGeometry width="325.5" height="217" as="geometry" />
        </mxCell>
        <mxCell id="mJSx3Dz7f0GuxdMOwKDn-99" value="" style="group" vertex="1" connectable="0" parent="mJSx3Dz7f0GuxdMOwKDn-112">
          <mxGeometry x="210" width="115.5" height="160" as="geometry" />
        </mxCell>
        <mxCell id="mJSx3Dz7f0GuxdMOwKDn-100" value="" style="shape=cube;whiteSpace=wrap;html=1;boundedLbl=1;backgroundOutline=1;darkOpacity=0.05;darkOpacity2=0.1;fillColor=#f8cecc;strokeColor=#b85450;" vertex="1" parent="mJSx3Dz7f0GuxdMOwKDn-99">
          <mxGeometry y="92.63157894736841" width="115.5" height="67.36842105263158" as="geometry" />
        </mxCell>
        <mxCell id="mJSx3Dz7f0GuxdMOwKDn-101" value="" style="shape=cube;whiteSpace=wrap;html=1;boundedLbl=1;backgroundOutline=1;darkOpacity=0.05;darkOpacity2=0.1;fillColor=#f8cecc;strokeColor=#b85450;" vertex="1" parent="mJSx3Dz7f0GuxdMOwKDn-99">
          <mxGeometry y="46.315789473684205" width="115.5" height="67.36842105263158" as="geometry" />
        </mxCell>
        <mxCell id="mJSx3Dz7f0GuxdMOwKDn-102" value="" style="shape=cube;whiteSpace=wrap;html=1;boundedLbl=1;backgroundOutline=1;darkOpacity=0.05;darkOpacity2=0.1;fillColor=#f8cecc;strokeColor=#b85450;" vertex="1" parent="mJSx3Dz7f0GuxdMOwKDn-99">
          <mxGeometry width="115.5" height="67.36842105263158" as="geometry" />
        </mxCell>
        <mxCell id="mJSx3Dz7f0GuxdMOwKDn-104" value="" style="group" vertex="1" connectable="0" parent="mJSx3Dz7f0GuxdMOwKDn-112">
          <mxGeometry x="100" width="135.5" height="160" as="geometry" />
        </mxCell>
        <mxCell id="mJSx3Dz7f0GuxdMOwKDn-105" value="" style="shape=cube;whiteSpace=wrap;html=1;boundedLbl=1;backgroundOutline=1;darkOpacity=0.05;darkOpacity2=0.1;fillColor=#f8cecc;strokeColor=#b85450;" vertex="1" parent="mJSx3Dz7f0GuxdMOwKDn-104">
          <mxGeometry y="92.63157894736841" width="135.5" height="67.36842105263158" as="geometry" />
        </mxCell>
        <mxCell id="mJSx3Dz7f0GuxdMOwKDn-106" value="" style="shape=cube;whiteSpace=wrap;html=1;boundedLbl=1;backgroundOutline=1;darkOpacity=0.05;darkOpacity2=0.1;fillColor=#f8cecc;strokeColor=#b85450;" vertex="1" parent="mJSx3Dz7f0GuxdMOwKDn-104">
          <mxGeometry y="46.315789473684205" width="135.5" height="67.36842105263158" as="geometry" />
        </mxCell>
        <mxCell id="mJSx3Dz7f0GuxdMOwKDn-107" value="" style="shape=cube;whiteSpace=wrap;html=1;boundedLbl=1;backgroundOutline=1;darkOpacity=0.05;darkOpacity2=0.1;fillColor=#f8cecc;strokeColor=#b85450;" vertex="1" parent="mJSx3Dz7f0GuxdMOwKDn-104">
          <mxGeometry width="135.5" height="67.36842105263158" as="geometry" />
        </mxCell>
        <mxCell id="mJSx3Dz7f0GuxdMOwKDn-108" value="" style="group" vertex="1" connectable="0" parent="mJSx3Dz7f0GuxdMOwKDn-112">
          <mxGeometry width="125.5" height="160" as="geometry" />
        </mxCell>
        <mxCell id="mJSx3Dz7f0GuxdMOwKDn-109" value="" style="shape=cube;whiteSpace=wrap;html=1;boundedLbl=1;backgroundOutline=1;darkOpacity=0.05;darkOpacity2=0.1;fillColor=#f8cecc;strokeColor=#b85450;" vertex="1" parent="mJSx3Dz7f0GuxdMOwKDn-108">
          <mxGeometry y="92.63157894736841" width="125.5" height="67.36842105263158" as="geometry" />
        </mxCell>
        <mxCell id="mJSx3Dz7f0GuxdMOwKDn-110" value="" style="shape=cube;whiteSpace=wrap;html=1;boundedLbl=1;backgroundOutline=1;darkOpacity=0.05;darkOpacity2=0.1;fillColor=#f8cecc;strokeColor=#b85450;" vertex="1" parent="mJSx3Dz7f0GuxdMOwKDn-108">
          <mxGeometry y="46.315789473684205" width="125.5" height="67.36842105263158" as="geometry" />
        </mxCell>
        <mxCell id="mJSx3Dz7f0GuxdMOwKDn-111" value="" style="shape=cube;whiteSpace=wrap;html=1;boundedLbl=1;backgroundOutline=1;darkOpacity=0.05;darkOpacity2=0.1;fillColor=#f8cecc;strokeColor=#b85450;" vertex="1" parent="mJSx3Dz7f0GuxdMOwKDn-108">
          <mxGeometry width="125.5" height="67.36842105263158" as="geometry" />
        </mxCell>
        <mxCell id="mJSx3Dz7f0GuxdMOwKDn-113" value="" style="group" vertex="1" connectable="0" parent="1">
          <mxGeometry x="2170" y="600" width="325.5" height="217" as="geometry" />
        </mxCell>
        <mxCell id="mJSx3Dz7f0GuxdMOwKDn-52" value="" style="verticalLabelPosition=bottom;outlineConnect=0;align=center;dashed=0;html=1;verticalAlign=top;shape=mxgraph.pid.misc.box_truck;" vertex="1" parent="mJSx3Dz7f0GuxdMOwKDn-113">
          <mxGeometry width="325.5" height="217" as="geometry" />
        </mxCell>
        <mxCell id="mJSx3Dz7f0GuxdMOwKDn-53" value="" style="shape=cube;whiteSpace=wrap;html=1;boundedLbl=1;backgroundOutline=1;darkOpacity=0.05;darkOpacity2=0.1;fillColor=#d5e8d4;strokeColor=#82b366;" vertex="1" parent="mJSx3Dz7f0GuxdMOwKDn-113">
          <mxGeometry x="205.5" y="120" width="120" height="40" as="geometry" />
        </mxCell>
        <mxCell id="mJSx3Dz7f0GuxdMOwKDn-54" value="" style="shape=cube;whiteSpace=wrap;html=1;boundedLbl=1;backgroundOutline=1;darkOpacity=0.05;darkOpacity2=0.1;fillColor=#d5e8d4;strokeColor=#82b366;" vertex="1" parent="mJSx3Dz7f0GuxdMOwKDn-113">
          <mxGeometry x="205.5" y="100" width="120" height="40" as="geometry" />
        </mxCell>
        <mxCell id="mJSx3Dz7f0GuxdMOwKDn-55" value="" style="shape=cube;whiteSpace=wrap;html=1;boundedLbl=1;backgroundOutline=1;darkOpacity=0.05;darkOpacity2=0.1;fillColor=#d5e8d4;strokeColor=#82b366;" vertex="1" parent="mJSx3Dz7f0GuxdMOwKDn-113">
          <mxGeometry x="205.5" y="80" width="120" height="40" as="geometry" />
        </mxCell>
        <mxCell id="mJSx3Dz7f0GuxdMOwKDn-56" value="" style="shape=cube;whiteSpace=wrap;html=1;boundedLbl=1;backgroundOutline=1;darkOpacity=0.05;darkOpacity2=0.1;fillColor=#d5e8d4;strokeColor=#82b366;" vertex="1" parent="mJSx3Dz7f0GuxdMOwKDn-113">
          <mxGeometry x="205.5" y="60" width="120" height="40" as="geometry" />
        </mxCell>
        <mxCell id="mJSx3Dz7f0GuxdMOwKDn-57" value="" style="shape=cube;whiteSpace=wrap;html=1;boundedLbl=1;backgroundOutline=1;darkOpacity=0.05;darkOpacity2=0.1;fillColor=#d5e8d4;strokeColor=#82b366;" vertex="1" parent="mJSx3Dz7f0GuxdMOwKDn-113">
          <mxGeometry x="205.5" y="40" width="120" height="40" as="geometry" />
        </mxCell>
        <mxCell id="mJSx3Dz7f0GuxdMOwKDn-58" value="" style="shape=cube;whiteSpace=wrap;html=1;boundedLbl=1;backgroundOutline=1;darkOpacity=0.05;darkOpacity2=0.1;fillColor=#d5e8d4;strokeColor=#82b366;" vertex="1" parent="mJSx3Dz7f0GuxdMOwKDn-113">
          <mxGeometry x="205.5" y="20" width="120" height="40" as="geometry" />
        </mxCell>
        <mxCell id="mJSx3Dz7f0GuxdMOwKDn-59" value="" style="shape=cube;whiteSpace=wrap;html=1;boundedLbl=1;backgroundOutline=1;darkOpacity=0.05;darkOpacity2=0.1;fillColor=#d5e8d4;strokeColor=#82b366;" vertex="1" parent="mJSx3Dz7f0GuxdMOwKDn-113">
          <mxGeometry x="205.5" width="120" height="40" as="geometry" />
        </mxCell>
        <mxCell id="mJSx3Dz7f0GuxdMOwKDn-81" value="" style="group" vertex="1" connectable="0" parent="mJSx3Dz7f0GuxdMOwKDn-113">
          <mxGeometry x="105.5" width="120" height="160" as="geometry" />
        </mxCell>
        <mxCell id="mJSx3Dz7f0GuxdMOwKDn-74" value="" style="shape=cube;whiteSpace=wrap;html=1;boundedLbl=1;backgroundOutline=1;darkOpacity=0.05;darkOpacity2=0.1;fillColor=#d5e8d4;strokeColor=#82b366;" vertex="1" parent="mJSx3Dz7f0GuxdMOwKDn-81">
          <mxGeometry y="120" width="120" height="40" as="geometry" />
        </mxCell>
        <mxCell id="mJSx3Dz7f0GuxdMOwKDn-75" value="" style="shape=cube;whiteSpace=wrap;html=1;boundedLbl=1;backgroundOutline=1;darkOpacity=0.05;darkOpacity2=0.1;fillColor=#d5e8d4;strokeColor=#82b366;" vertex="1" parent="mJSx3Dz7f0GuxdMOwKDn-81">
          <mxGeometry y="100" width="120" height="40" as="geometry" />
        </mxCell>
        <mxCell id="mJSx3Dz7f0GuxdMOwKDn-76" value="" style="shape=cube;whiteSpace=wrap;html=1;boundedLbl=1;backgroundOutline=1;darkOpacity=0.05;darkOpacity2=0.1;fillColor=#d5e8d4;strokeColor=#82b366;" vertex="1" parent="mJSx3Dz7f0GuxdMOwKDn-81">
          <mxGeometry y="80" width="120" height="40" as="geometry" />
        </mxCell>
        <mxCell id="mJSx3Dz7f0GuxdMOwKDn-77" value="" style="shape=cube;whiteSpace=wrap;html=1;boundedLbl=1;backgroundOutline=1;darkOpacity=0.05;darkOpacity2=0.1;fillColor=#d5e8d4;strokeColor=#82b366;" vertex="1" parent="mJSx3Dz7f0GuxdMOwKDn-81">
          <mxGeometry y="60" width="120" height="40" as="geometry" />
        </mxCell>
        <mxCell id="mJSx3Dz7f0GuxdMOwKDn-78" value="" style="shape=cube;whiteSpace=wrap;html=1;boundedLbl=1;backgroundOutline=1;darkOpacity=0.05;darkOpacity2=0.1;fillColor=#d5e8d4;strokeColor=#82b366;" vertex="1" parent="mJSx3Dz7f0GuxdMOwKDn-81">
          <mxGeometry y="40" width="120" height="40" as="geometry" />
        </mxCell>
        <mxCell id="mJSx3Dz7f0GuxdMOwKDn-79" value="" style="shape=cube;whiteSpace=wrap;html=1;boundedLbl=1;backgroundOutline=1;darkOpacity=0.05;darkOpacity2=0.1;fillColor=#d5e8d4;strokeColor=#82b366;" vertex="1" parent="mJSx3Dz7f0GuxdMOwKDn-81">
          <mxGeometry y="20" width="120" height="40" as="geometry" />
        </mxCell>
        <mxCell id="mJSx3Dz7f0GuxdMOwKDn-80" value="" style="shape=cube;whiteSpace=wrap;html=1;boundedLbl=1;backgroundOutline=1;darkOpacity=0.05;darkOpacity2=0.1;fillColor=#d5e8d4;strokeColor=#82b366;" vertex="1" parent="mJSx3Dz7f0GuxdMOwKDn-81">
          <mxGeometry width="120" height="40" as="geometry" />
        </mxCell>
        <mxCell id="mJSx3Dz7f0GuxdMOwKDn-90" value="" style="group" vertex="1" connectable="0" parent="mJSx3Dz7f0GuxdMOwKDn-81">
          <mxGeometry x="-100" width="120" height="160" as="geometry" />
        </mxCell>
        <mxCell id="mJSx3Dz7f0GuxdMOwKDn-91" value="" style="shape=cube;whiteSpace=wrap;html=1;boundedLbl=1;backgroundOutline=1;darkOpacity=0.05;darkOpacity2=0.1;fillColor=#d5e8d4;strokeColor=#82b366;" vertex="1" parent="mJSx3Dz7f0GuxdMOwKDn-90">
          <mxGeometry y="120" width="120" height="40" as="geometry" />
        </mxCell>
        <mxCell id="mJSx3Dz7f0GuxdMOwKDn-92" value="" style="shape=cube;whiteSpace=wrap;html=1;boundedLbl=1;backgroundOutline=1;darkOpacity=0.05;darkOpacity2=0.1;fillColor=#d5e8d4;strokeColor=#82b366;" vertex="1" parent="mJSx3Dz7f0GuxdMOwKDn-90">
          <mxGeometry y="100" width="120" height="40" as="geometry" />
        </mxCell>
        <mxCell id="mJSx3Dz7f0GuxdMOwKDn-93" value="" style="shape=cube;whiteSpace=wrap;html=1;boundedLbl=1;backgroundOutline=1;darkOpacity=0.05;darkOpacity2=0.1;fillColor=#d5e8d4;strokeColor=#82b366;" vertex="1" parent="mJSx3Dz7f0GuxdMOwKDn-90">
          <mxGeometry y="80" width="120" height="40" as="geometry" />
        </mxCell>
        <mxCell id="mJSx3Dz7f0GuxdMOwKDn-94" value="" style="shape=cube;whiteSpace=wrap;html=1;boundedLbl=1;backgroundOutline=1;darkOpacity=0.05;darkOpacity2=0.1;fillColor=#d5e8d4;strokeColor=#82b366;" vertex="1" parent="mJSx3Dz7f0GuxdMOwKDn-90">
          <mxGeometry y="60" width="120" height="40" as="geometry" />
        </mxCell>
        <mxCell id="mJSx3Dz7f0GuxdMOwKDn-95" value="" style="shape=cube;whiteSpace=wrap;html=1;boundedLbl=1;backgroundOutline=1;darkOpacity=0.05;darkOpacity2=0.1;fillColor=#d5e8d4;strokeColor=#82b366;" vertex="1" parent="mJSx3Dz7f0GuxdMOwKDn-90">
          <mxGeometry y="40" width="120" height="40" as="geometry" />
        </mxCell>
        <mxCell id="mJSx3Dz7f0GuxdMOwKDn-96" value="" style="shape=cube;whiteSpace=wrap;html=1;boundedLbl=1;backgroundOutline=1;darkOpacity=0.05;darkOpacity2=0.1;fillColor=#d5e8d4;strokeColor=#82b366;" vertex="1" parent="mJSx3Dz7f0GuxdMOwKDn-90">
          <mxGeometry y="20" width="120" height="40" as="geometry" />
        </mxCell>
        <mxCell id="mJSx3Dz7f0GuxdMOwKDn-97" value="" style="shape=cube;whiteSpace=wrap;html=1;boundedLbl=1;backgroundOutline=1;darkOpacity=0.05;darkOpacity2=0.1;fillColor=#d5e8d4;strokeColor=#82b366;" vertex="1" parent="mJSx3Dz7f0GuxdMOwKDn-90">
          <mxGeometry width="120" height="40" as="geometry" />
        </mxCell>
        <mxCell id="mJSx3Dz7f0GuxdMOwKDn-115" value="" style="group" vertex="1" connectable="0" parent="1">
          <mxGeometry x="2890" y="600" width="325.5" height="217" as="geometry" />
        </mxCell>
        <mxCell id="mJSx3Dz7f0GuxdMOwKDn-116" value="" style="verticalLabelPosition=bottom;outlineConnect=0;align=center;dashed=0;html=1;verticalAlign=top;shape=mxgraph.pid.misc.box_truck;" vertex="1" parent="mJSx3Dz7f0GuxdMOwKDn-115">
          <mxGeometry width="325.5" height="217" as="geometry" />
        </mxCell>
        <mxCell id="mJSx3Dz7f0GuxdMOwKDn-117" value="" style="shape=cube;whiteSpace=wrap;html=1;boundedLbl=1;backgroundOutline=1;darkOpacity=0.05;darkOpacity2=0.1;fillColor=#d5e8d4;strokeColor=#82b366;" vertex="1" parent="mJSx3Dz7f0GuxdMOwKDn-115">
          <mxGeometry x="205.5" y="120" width="120" height="40" as="geometry" />
        </mxCell>
        <mxCell id="mJSx3Dz7f0GuxdMOwKDn-118" value="" style="shape=cube;whiteSpace=wrap;html=1;boundedLbl=1;backgroundOutline=1;darkOpacity=0.05;darkOpacity2=0.1;fillColor=#d5e8d4;strokeColor=#82b366;" vertex="1" parent="mJSx3Dz7f0GuxdMOwKDn-115">
          <mxGeometry x="205.5" y="100" width="120" height="40" as="geometry" />
        </mxCell>
        <mxCell id="mJSx3Dz7f0GuxdMOwKDn-119" value="" style="shape=cube;whiteSpace=wrap;html=1;boundedLbl=1;backgroundOutline=1;darkOpacity=0.05;darkOpacity2=0.1;fillColor=#d5e8d4;strokeColor=#82b366;" vertex="1" parent="mJSx3Dz7f0GuxdMOwKDn-115">
          <mxGeometry x="205.5" y="80" width="120" height="40" as="geometry" />
        </mxCell>
        <mxCell id="mJSx3Dz7f0GuxdMOwKDn-120" value="" style="shape=cube;whiteSpace=wrap;html=1;boundedLbl=1;backgroundOutline=1;darkOpacity=0.05;darkOpacity2=0.1;fillColor=#d5e8d4;strokeColor=#82b366;" vertex="1" parent="mJSx3Dz7f0GuxdMOwKDn-115">
          <mxGeometry x="205.5" y="60" width="120" height="40" as="geometry" />
        </mxCell>
        <mxCell id="mJSx3Dz7f0GuxdMOwKDn-121" value="" style="shape=cube;whiteSpace=wrap;html=1;boundedLbl=1;backgroundOutline=1;darkOpacity=0.05;darkOpacity2=0.1;fillColor=#d5e8d4;strokeColor=#82b366;" vertex="1" parent="mJSx3Dz7f0GuxdMOwKDn-115">
          <mxGeometry x="205.5" y="40" width="120" height="40" as="geometry" />
        </mxCell>
        <mxCell id="mJSx3Dz7f0GuxdMOwKDn-122" value="" style="shape=cube;whiteSpace=wrap;html=1;boundedLbl=1;backgroundOutline=1;darkOpacity=0.05;darkOpacity2=0.1;fillColor=#d5e8d4;strokeColor=#82b366;" vertex="1" parent="mJSx3Dz7f0GuxdMOwKDn-115">
          <mxGeometry x="205.5" y="20" width="120" height="40" as="geometry" />
        </mxCell>
        <mxCell id="mJSx3Dz7f0GuxdMOwKDn-123" value="" style="shape=cube;whiteSpace=wrap;html=1;boundedLbl=1;backgroundOutline=1;darkOpacity=0.05;darkOpacity2=0.1;fillColor=#d5e8d4;strokeColor=#82b366;" vertex="1" parent="mJSx3Dz7f0GuxdMOwKDn-115">
          <mxGeometry x="205.5" width="120" height="40" as="geometry" />
        </mxCell>
        <mxCell id="mJSx3Dz7f0GuxdMOwKDn-124" value="" style="group" vertex="1" connectable="0" parent="mJSx3Dz7f0GuxdMOwKDn-115">
          <mxGeometry x="105.5" width="120" height="160" as="geometry" />
        </mxCell>
        <mxCell id="mJSx3Dz7f0GuxdMOwKDn-125" value="" style="shape=cube;whiteSpace=wrap;html=1;boundedLbl=1;backgroundOutline=1;darkOpacity=0.05;darkOpacity2=0.1;fillColor=#d5e8d4;strokeColor=#82b366;" vertex="1" parent="mJSx3Dz7f0GuxdMOwKDn-124">
          <mxGeometry y="120" width="120" height="40" as="geometry" />
        </mxCell>
        <mxCell id="mJSx3Dz7f0GuxdMOwKDn-126" value="" style="shape=cube;whiteSpace=wrap;html=1;boundedLbl=1;backgroundOutline=1;darkOpacity=0.05;darkOpacity2=0.1;fillColor=#d5e8d4;strokeColor=#82b366;" vertex="1" parent="mJSx3Dz7f0GuxdMOwKDn-124">
          <mxGeometry y="100" width="120" height="40" as="geometry" />
        </mxCell>
        <mxCell id="mJSx3Dz7f0GuxdMOwKDn-127" value="" style="shape=cube;whiteSpace=wrap;html=1;boundedLbl=1;backgroundOutline=1;darkOpacity=0.05;darkOpacity2=0.1;fillColor=#d5e8d4;strokeColor=#82b366;" vertex="1" parent="mJSx3Dz7f0GuxdMOwKDn-124">
          <mxGeometry y="80" width="120" height="40" as="geometry" />
        </mxCell>
        <mxCell id="mJSx3Dz7f0GuxdMOwKDn-128" value="" style="shape=cube;whiteSpace=wrap;html=1;boundedLbl=1;backgroundOutline=1;darkOpacity=0.05;darkOpacity2=0.1;fillColor=#d5e8d4;strokeColor=#82b366;" vertex="1" parent="mJSx3Dz7f0GuxdMOwKDn-124">
          <mxGeometry y="60" width="120" height="40" as="geometry" />
        </mxCell>
        <mxCell id="mJSx3Dz7f0GuxdMOwKDn-129" value="" style="shape=cube;whiteSpace=wrap;html=1;boundedLbl=1;backgroundOutline=1;darkOpacity=0.05;darkOpacity2=0.1;fillColor=#d5e8d4;strokeColor=#82b366;" vertex="1" parent="mJSx3Dz7f0GuxdMOwKDn-124">
          <mxGeometry y="40" width="120" height="40" as="geometry" />
        </mxCell>
        <mxCell id="mJSx3Dz7f0GuxdMOwKDn-130" value="" style="shape=cube;whiteSpace=wrap;html=1;boundedLbl=1;backgroundOutline=1;darkOpacity=0.05;darkOpacity2=0.1;fillColor=#d5e8d4;strokeColor=#82b366;" vertex="1" parent="mJSx3Dz7f0GuxdMOwKDn-124">
          <mxGeometry y="20" width="120" height="40" as="geometry" />
        </mxCell>
        <mxCell id="mJSx3Dz7f0GuxdMOwKDn-131" value="" style="shape=cube;whiteSpace=wrap;html=1;boundedLbl=1;backgroundOutline=1;darkOpacity=0.05;darkOpacity2=0.1;fillColor=#d5e8d4;strokeColor=#82b366;" vertex="1" parent="mJSx3Dz7f0GuxdMOwKDn-124">
          <mxGeometry width="120" height="40" as="geometry" />
        </mxCell>
        <mxCell id="mJSx3Dz7f0GuxdMOwKDn-132" value="" style="group" vertex="1" connectable="0" parent="mJSx3Dz7f0GuxdMOwKDn-124">
          <mxGeometry x="-100" width="120" height="160" as="geometry" />
        </mxCell>
        <mxCell id="mJSx3Dz7f0GuxdMOwKDn-133" value="" style="shape=cube;whiteSpace=wrap;html=1;boundedLbl=1;backgroundOutline=1;darkOpacity=0.05;darkOpacity2=0.1;fillColor=#d5e8d4;strokeColor=#82b366;" vertex="1" parent="mJSx3Dz7f0GuxdMOwKDn-132">
          <mxGeometry y="120" width="120" height="40" as="geometry" />
        </mxCell>
        <mxCell id="mJSx3Dz7f0GuxdMOwKDn-134" value="" style="shape=cube;whiteSpace=wrap;html=1;boundedLbl=1;backgroundOutline=1;darkOpacity=0.05;darkOpacity2=0.1;fillColor=#d5e8d4;strokeColor=#82b366;" vertex="1" parent="mJSx3Dz7f0GuxdMOwKDn-132">
          <mxGeometry y="100" width="120" height="40" as="geometry" />
        </mxCell>
        <mxCell id="mJSx3Dz7f0GuxdMOwKDn-135" value="" style="shape=cube;whiteSpace=wrap;html=1;boundedLbl=1;backgroundOutline=1;darkOpacity=0.05;darkOpacity2=0.1;fillColor=#d5e8d4;strokeColor=#82b366;" vertex="1" parent="mJSx3Dz7f0GuxdMOwKDn-132">
          <mxGeometry y="80" width="120" height="40" as="geometry" />
        </mxCell>
        <mxCell id="mJSx3Dz7f0GuxdMOwKDn-136" value="" style="shape=cube;whiteSpace=wrap;html=1;boundedLbl=1;backgroundOutline=1;darkOpacity=0.05;darkOpacity2=0.1;fillColor=#d5e8d4;strokeColor=#82b366;" vertex="1" parent="mJSx3Dz7f0GuxdMOwKDn-132">
          <mxGeometry y="60" width="120" height="40" as="geometry" />
        </mxCell>
        <mxCell id="mJSx3Dz7f0GuxdMOwKDn-137" value="" style="shape=cube;whiteSpace=wrap;html=1;boundedLbl=1;backgroundOutline=1;darkOpacity=0.05;darkOpacity2=0.1;fillColor=#d5e8d4;strokeColor=#82b366;" vertex="1" parent="mJSx3Dz7f0GuxdMOwKDn-132">
          <mxGeometry y="40" width="120" height="40" as="geometry" />
        </mxCell>
        <mxCell id="mJSx3Dz7f0GuxdMOwKDn-138" value="" style="shape=cube;whiteSpace=wrap;html=1;boundedLbl=1;backgroundOutline=1;darkOpacity=0.05;darkOpacity2=0.1;fillColor=#d5e8d4;strokeColor=#82b366;" vertex="1" parent="mJSx3Dz7f0GuxdMOwKDn-132">
          <mxGeometry y="20" width="120" height="40" as="geometry" />
        </mxCell>
        <mxCell id="mJSx3Dz7f0GuxdMOwKDn-139" value="" style="shape=cube;whiteSpace=wrap;html=1;boundedLbl=1;backgroundOutline=1;darkOpacity=0.05;darkOpacity2=0.1;fillColor=#d5e8d4;strokeColor=#82b366;" vertex="1" parent="mJSx3Dz7f0GuxdMOwKDn-132">
          <mxGeometry width="120" height="40" as="geometry" />
        </mxCell>
        <mxCell id="mJSx3Dz7f0GuxdMOwKDn-140" value="" style="group" vertex="1" connectable="0" parent="1">
          <mxGeometry x="3480" y="600" width="325.5" height="217" as="geometry" />
        </mxCell>
        <mxCell id="mJSx3Dz7f0GuxdMOwKDn-141" value="" style="verticalLabelPosition=bottom;outlineConnect=0;align=center;dashed=0;html=1;verticalAlign=top;shape=mxgraph.pid.misc.box_truck;" vertex="1" parent="mJSx3Dz7f0GuxdMOwKDn-140">
          <mxGeometry width="325.5" height="217" as="geometry" />
        </mxCell>
        <mxCell id="mJSx3Dz7f0GuxdMOwKDn-142" value="" style="shape=cube;whiteSpace=wrap;html=1;boundedLbl=1;backgroundOutline=1;darkOpacity=0.05;darkOpacity2=0.1;fillColor=#d5e8d4;strokeColor=#82b366;" vertex="1" parent="mJSx3Dz7f0GuxdMOwKDn-140">
          <mxGeometry x="205.5" y="120" width="120" height="40" as="geometry" />
        </mxCell>
        <mxCell id="mJSx3Dz7f0GuxdMOwKDn-143" value="" style="shape=cube;whiteSpace=wrap;html=1;boundedLbl=1;backgroundOutline=1;darkOpacity=0.05;darkOpacity2=0.1;fillColor=#d5e8d4;strokeColor=#82b366;" vertex="1" parent="mJSx3Dz7f0GuxdMOwKDn-140">
          <mxGeometry x="205.5" y="100" width="120" height="40" as="geometry" />
        </mxCell>
        <mxCell id="mJSx3Dz7f0GuxdMOwKDn-144" value="" style="shape=cube;whiteSpace=wrap;html=1;boundedLbl=1;backgroundOutline=1;darkOpacity=0.05;darkOpacity2=0.1;fillColor=#d5e8d4;strokeColor=#82b366;" vertex="1" parent="mJSx3Dz7f0GuxdMOwKDn-140">
          <mxGeometry x="205.5" y="80" width="120" height="40" as="geometry" />
        </mxCell>
        <mxCell id="mJSx3Dz7f0GuxdMOwKDn-145" value="" style="shape=cube;whiteSpace=wrap;html=1;boundedLbl=1;backgroundOutline=1;darkOpacity=0.05;darkOpacity2=0.1;fillColor=#d5e8d4;strokeColor=#82b366;" vertex="1" parent="mJSx3Dz7f0GuxdMOwKDn-140">
          <mxGeometry x="205.5" y="60" width="120" height="40" as="geometry" />
        </mxCell>
        <mxCell id="mJSx3Dz7f0GuxdMOwKDn-146" value="" style="shape=cube;whiteSpace=wrap;html=1;boundedLbl=1;backgroundOutline=1;darkOpacity=0.05;darkOpacity2=0.1;fillColor=#d5e8d4;strokeColor=#82b366;" vertex="1" parent="mJSx3Dz7f0GuxdMOwKDn-140">
          <mxGeometry x="205.5" y="40" width="120" height="40" as="geometry" />
        </mxCell>
        <mxCell id="mJSx3Dz7f0GuxdMOwKDn-147" value="" style="shape=cube;whiteSpace=wrap;html=1;boundedLbl=1;backgroundOutline=1;darkOpacity=0.05;darkOpacity2=0.1;fillColor=#d5e8d4;strokeColor=#82b366;" vertex="1" parent="mJSx3Dz7f0GuxdMOwKDn-140">
          <mxGeometry x="205.5" y="20" width="120" height="40" as="geometry" />
        </mxCell>
        <mxCell id="mJSx3Dz7f0GuxdMOwKDn-148" value="" style="shape=cube;whiteSpace=wrap;html=1;boundedLbl=1;backgroundOutline=1;darkOpacity=0.05;darkOpacity2=0.1;fillColor=#d5e8d4;strokeColor=#82b366;" vertex="1" parent="mJSx3Dz7f0GuxdMOwKDn-140">
          <mxGeometry x="205.5" width="120" height="40" as="geometry" />
        </mxCell>
        <mxCell id="mJSx3Dz7f0GuxdMOwKDn-149" value="" style="group" vertex="1" connectable="0" parent="mJSx3Dz7f0GuxdMOwKDn-140">
          <mxGeometry x="105.5" width="120" height="160" as="geometry" />
        </mxCell>
        <mxCell id="mJSx3Dz7f0GuxdMOwKDn-150" value="" style="shape=cube;whiteSpace=wrap;html=1;boundedLbl=1;backgroundOutline=1;darkOpacity=0.05;darkOpacity2=0.1;fillColor=#d5e8d4;strokeColor=#82b366;" vertex="1" parent="mJSx3Dz7f0GuxdMOwKDn-149">
          <mxGeometry y="120" width="120" height="40" as="geometry" />
        </mxCell>
        <mxCell id="mJSx3Dz7f0GuxdMOwKDn-151" value="" style="shape=cube;whiteSpace=wrap;html=1;boundedLbl=1;backgroundOutline=1;darkOpacity=0.05;darkOpacity2=0.1;fillColor=#d5e8d4;strokeColor=#82b366;" vertex="1" parent="mJSx3Dz7f0GuxdMOwKDn-149">
          <mxGeometry y="100" width="120" height="40" as="geometry" />
        </mxCell>
        <mxCell id="mJSx3Dz7f0GuxdMOwKDn-152" value="" style="shape=cube;whiteSpace=wrap;html=1;boundedLbl=1;backgroundOutline=1;darkOpacity=0.05;darkOpacity2=0.1;fillColor=#d5e8d4;strokeColor=#82b366;" vertex="1" parent="mJSx3Dz7f0GuxdMOwKDn-149">
          <mxGeometry y="80" width="120" height="40" as="geometry" />
        </mxCell>
        <mxCell id="mJSx3Dz7f0GuxdMOwKDn-153" value="" style="shape=cube;whiteSpace=wrap;html=1;boundedLbl=1;backgroundOutline=1;darkOpacity=0.05;darkOpacity2=0.1;fillColor=#d5e8d4;strokeColor=#82b366;" vertex="1" parent="mJSx3Dz7f0GuxdMOwKDn-149">
          <mxGeometry y="60" width="120" height="40" as="geometry" />
        </mxCell>
        <mxCell id="mJSx3Dz7f0GuxdMOwKDn-154" value="" style="shape=cube;whiteSpace=wrap;html=1;boundedLbl=1;backgroundOutline=1;darkOpacity=0.05;darkOpacity2=0.1;fillColor=#d5e8d4;strokeColor=#82b366;" vertex="1" parent="mJSx3Dz7f0GuxdMOwKDn-149">
          <mxGeometry y="40" width="120" height="40" as="geometry" />
        </mxCell>
        <mxCell id="mJSx3Dz7f0GuxdMOwKDn-155" value="" style="shape=cube;whiteSpace=wrap;html=1;boundedLbl=1;backgroundOutline=1;darkOpacity=0.05;darkOpacity2=0.1;fillColor=#d5e8d4;strokeColor=#82b366;" vertex="1" parent="mJSx3Dz7f0GuxdMOwKDn-149">
          <mxGeometry y="20" width="120" height="40" as="geometry" />
        </mxCell>
        <mxCell id="mJSx3Dz7f0GuxdMOwKDn-156" value="" style="shape=cube;whiteSpace=wrap;html=1;boundedLbl=1;backgroundOutline=1;darkOpacity=0.05;darkOpacity2=0.1;fillColor=#d5e8d4;strokeColor=#82b366;" vertex="1" parent="mJSx3Dz7f0GuxdMOwKDn-149">
          <mxGeometry width="120" height="40" as="geometry" />
        </mxCell>
        <mxCell id="mJSx3Dz7f0GuxdMOwKDn-157" value="" style="group" vertex="1" connectable="0" parent="mJSx3Dz7f0GuxdMOwKDn-149">
          <mxGeometry x="-100" width="120" height="160" as="geometry" />
        </mxCell>
        <mxCell id="mJSx3Dz7f0GuxdMOwKDn-158" value="" style="shape=cube;whiteSpace=wrap;html=1;boundedLbl=1;backgroundOutline=1;darkOpacity=0.05;darkOpacity2=0.1;fillColor=#d5e8d4;strokeColor=#82b366;" vertex="1" parent="mJSx3Dz7f0GuxdMOwKDn-157">
          <mxGeometry y="120" width="120" height="40" as="geometry" />
        </mxCell>
        <mxCell id="mJSx3Dz7f0GuxdMOwKDn-159" value="" style="shape=cube;whiteSpace=wrap;html=1;boundedLbl=1;backgroundOutline=1;darkOpacity=0.05;darkOpacity2=0.1;fillColor=#d5e8d4;strokeColor=#82b366;" vertex="1" parent="mJSx3Dz7f0GuxdMOwKDn-157">
          <mxGeometry y="100" width="120" height="40" as="geometry" />
        </mxCell>
        <mxCell id="mJSx3Dz7f0GuxdMOwKDn-160" value="" style="shape=cube;whiteSpace=wrap;html=1;boundedLbl=1;backgroundOutline=1;darkOpacity=0.05;darkOpacity2=0.1;fillColor=#d5e8d4;strokeColor=#82b366;" vertex="1" parent="mJSx3Dz7f0GuxdMOwKDn-157">
          <mxGeometry y="80" width="120" height="40" as="geometry" />
        </mxCell>
        <mxCell id="mJSx3Dz7f0GuxdMOwKDn-161" value="" style="shape=cube;whiteSpace=wrap;html=1;boundedLbl=1;backgroundOutline=1;darkOpacity=0.05;darkOpacity2=0.1;fillColor=#d5e8d4;strokeColor=#82b366;" vertex="1" parent="mJSx3Dz7f0GuxdMOwKDn-157">
          <mxGeometry y="60" width="120" height="40" as="geometry" />
        </mxCell>
        <mxCell id="mJSx3Dz7f0GuxdMOwKDn-162" value="" style="shape=cube;whiteSpace=wrap;html=1;boundedLbl=1;backgroundOutline=1;darkOpacity=0.05;darkOpacity2=0.1;fillColor=#d5e8d4;strokeColor=#82b366;" vertex="1" parent="mJSx3Dz7f0GuxdMOwKDn-157">
          <mxGeometry y="40" width="120" height="40" as="geometry" />
        </mxCell>
        <mxCell id="mJSx3Dz7f0GuxdMOwKDn-163" value="" style="shape=cube;whiteSpace=wrap;html=1;boundedLbl=1;backgroundOutline=1;darkOpacity=0.05;darkOpacity2=0.1;fillColor=#d5e8d4;strokeColor=#82b366;" vertex="1" parent="mJSx3Dz7f0GuxdMOwKDn-157">
          <mxGeometry y="20" width="120" height="40" as="geometry" />
        </mxCell>
        <mxCell id="mJSx3Dz7f0GuxdMOwKDn-164" value="" style="shape=cube;whiteSpace=wrap;html=1;boundedLbl=1;backgroundOutline=1;darkOpacity=0.05;darkOpacity2=0.1;fillColor=#d5e8d4;strokeColor=#82b366;" vertex="1" parent="mJSx3Dz7f0GuxdMOwKDn-157">
          <mxGeometry width="120" height="40" as="geometry" />
        </mxCell>
        <mxCell id="mJSx3Dz7f0GuxdMOwKDn-166" value="" style="group" vertex="1" connectable="0" parent="1">
          <mxGeometry x="2930" y="1423" width="325.5" height="217" as="geometry" />
        </mxCell>
        <mxCell id="mJSx3Dz7f0GuxdMOwKDn-167" value="" style="verticalLabelPosition=bottom;outlineConnect=0;align=center;dashed=0;html=1;verticalAlign=top;shape=mxgraph.pid.misc.box_truck;" vertex="1" parent="mJSx3Dz7f0GuxdMOwKDn-166">
          <mxGeometry width="325.5" height="217" as="geometry" />
        </mxCell>
        <mxCell id="mJSx3Dz7f0GuxdMOwKDn-168" value="" style="group" vertex="1" connectable="0" parent="mJSx3Dz7f0GuxdMOwKDn-166">
          <mxGeometry x="210" width="115.5" height="160" as="geometry" />
        </mxCell>
        <mxCell id="mJSx3Dz7f0GuxdMOwKDn-169" value="" style="shape=cube;whiteSpace=wrap;html=1;boundedLbl=1;backgroundOutline=1;darkOpacity=0.05;darkOpacity2=0.1;fillColor=#f8cecc;strokeColor=#b85450;" vertex="1" parent="mJSx3Dz7f0GuxdMOwKDn-168">
          <mxGeometry y="92.63157894736841" width="115.5" height="67.36842105263158" as="geometry" />
        </mxCell>
        <mxCell id="mJSx3Dz7f0GuxdMOwKDn-170" value="" style="shape=cube;whiteSpace=wrap;html=1;boundedLbl=1;backgroundOutline=1;darkOpacity=0.05;darkOpacity2=0.1;fillColor=#f8cecc;strokeColor=#b85450;" vertex="1" parent="mJSx3Dz7f0GuxdMOwKDn-168">
          <mxGeometry y="46.315789473684205" width="115.5" height="67.36842105263158" as="geometry" />
        </mxCell>
        <mxCell id="mJSx3Dz7f0GuxdMOwKDn-171" value="" style="shape=cube;whiteSpace=wrap;html=1;boundedLbl=1;backgroundOutline=1;darkOpacity=0.05;darkOpacity2=0.1;fillColor=#f8cecc;strokeColor=#b85450;" vertex="1" parent="mJSx3Dz7f0GuxdMOwKDn-168">
          <mxGeometry width="115.5" height="67.36842105263158" as="geometry" />
        </mxCell>
        <mxCell id="mJSx3Dz7f0GuxdMOwKDn-172" value="" style="group" vertex="1" connectable="0" parent="mJSx3Dz7f0GuxdMOwKDn-166">
          <mxGeometry x="100" width="135.5" height="160" as="geometry" />
        </mxCell>
        <mxCell id="mJSx3Dz7f0GuxdMOwKDn-173" value="" style="shape=cube;whiteSpace=wrap;html=1;boundedLbl=1;backgroundOutline=1;darkOpacity=0.05;darkOpacity2=0.1;fillColor=#f8cecc;strokeColor=#b85450;" vertex="1" parent="mJSx3Dz7f0GuxdMOwKDn-172">
          <mxGeometry y="92.63157894736841" width="135.5" height="67.36842105263158" as="geometry" />
        </mxCell>
        <mxCell id="mJSx3Dz7f0GuxdMOwKDn-174" value="" style="shape=cube;whiteSpace=wrap;html=1;boundedLbl=1;backgroundOutline=1;darkOpacity=0.05;darkOpacity2=0.1;fillColor=#f8cecc;strokeColor=#b85450;" vertex="1" parent="mJSx3Dz7f0GuxdMOwKDn-172">
          <mxGeometry y="46.315789473684205" width="135.5" height="67.36842105263158" as="geometry" />
        </mxCell>
        <mxCell id="mJSx3Dz7f0GuxdMOwKDn-175" value="" style="shape=cube;whiteSpace=wrap;html=1;boundedLbl=1;backgroundOutline=1;darkOpacity=0.05;darkOpacity2=0.1;fillColor=#f8cecc;strokeColor=#b85450;" vertex="1" parent="mJSx3Dz7f0GuxdMOwKDn-172">
          <mxGeometry width="135.5" height="67.36842105263158" as="geometry" />
        </mxCell>
        <mxCell id="mJSx3Dz7f0GuxdMOwKDn-176" value="" style="group" vertex="1" connectable="0" parent="mJSx3Dz7f0GuxdMOwKDn-166">
          <mxGeometry width="125.5" height="160" as="geometry" />
        </mxCell>
        <mxCell id="mJSx3Dz7f0GuxdMOwKDn-177" value="" style="shape=cube;whiteSpace=wrap;html=1;boundedLbl=1;backgroundOutline=1;darkOpacity=0.05;darkOpacity2=0.1;fillColor=#f8cecc;strokeColor=#b85450;" vertex="1" parent="mJSx3Dz7f0GuxdMOwKDn-176">
          <mxGeometry y="92.63157894736841" width="125.5" height="67.36842105263158" as="geometry" />
        </mxCell>
        <mxCell id="mJSx3Dz7f0GuxdMOwKDn-178" value="" style="shape=cube;whiteSpace=wrap;html=1;boundedLbl=1;backgroundOutline=1;darkOpacity=0.05;darkOpacity2=0.1;fillColor=#f8cecc;strokeColor=#b85450;" vertex="1" parent="mJSx3Dz7f0GuxdMOwKDn-176">
          <mxGeometry y="46.315789473684205" width="125.5" height="67.36842105263158" as="geometry" />
        </mxCell>
        <mxCell id="mJSx3Dz7f0GuxdMOwKDn-179" value="" style="shape=cube;whiteSpace=wrap;html=1;boundedLbl=1;backgroundOutline=1;darkOpacity=0.05;darkOpacity2=0.1;fillColor=#f8cecc;strokeColor=#b85450;" vertex="1" parent="mJSx3Dz7f0GuxdMOwKDn-176">
          <mxGeometry width="125.5" height="67.36842105263158" as="geometry" />
        </mxCell>
        <mxCell id="mJSx3Dz7f0GuxdMOwKDn-180" value="" style="group" vertex="1" connectable="0" parent="1">
          <mxGeometry x="3510" y="1410" width="325.5" height="217" as="geometry" />
        </mxCell>
        <mxCell id="mJSx3Dz7f0GuxdMOwKDn-181" value="" style="verticalLabelPosition=bottom;outlineConnect=0;align=center;dashed=0;html=1;verticalAlign=top;shape=mxgraph.pid.misc.box_truck;" vertex="1" parent="mJSx3Dz7f0GuxdMOwKDn-180">
          <mxGeometry width="325.5" height="217" as="geometry" />
        </mxCell>
        <mxCell id="mJSx3Dz7f0GuxdMOwKDn-182" value="" style="group" vertex="1" connectable="0" parent="mJSx3Dz7f0GuxdMOwKDn-180">
          <mxGeometry x="210" width="115.5" height="160" as="geometry" />
        </mxCell>
        <mxCell id="mJSx3Dz7f0GuxdMOwKDn-183" value="" style="shape=cube;whiteSpace=wrap;html=1;boundedLbl=1;backgroundOutline=1;darkOpacity=0.05;darkOpacity2=0.1;fillColor=#f8cecc;strokeColor=#b85450;" vertex="1" parent="mJSx3Dz7f0GuxdMOwKDn-182">
          <mxGeometry y="92.63157894736841" width="115.5" height="67.36842105263158" as="geometry" />
        </mxCell>
        <mxCell id="mJSx3Dz7f0GuxdMOwKDn-184" value="" style="shape=cube;whiteSpace=wrap;html=1;boundedLbl=1;backgroundOutline=1;darkOpacity=0.05;darkOpacity2=0.1;fillColor=#f8cecc;strokeColor=#b85450;" vertex="1" parent="mJSx3Dz7f0GuxdMOwKDn-182">
          <mxGeometry y="46.315789473684205" width="115.5" height="67.36842105263158" as="geometry" />
        </mxCell>
        <mxCell id="mJSx3Dz7f0GuxdMOwKDn-185" value="" style="shape=cube;whiteSpace=wrap;html=1;boundedLbl=1;backgroundOutline=1;darkOpacity=0.05;darkOpacity2=0.1;fillColor=#f8cecc;strokeColor=#b85450;" vertex="1" parent="mJSx3Dz7f0GuxdMOwKDn-182">
          <mxGeometry width="115.5" height="67.36842105263158" as="geometry" />
        </mxCell>
        <mxCell id="mJSx3Dz7f0GuxdMOwKDn-186" value="" style="group" vertex="1" connectable="0" parent="mJSx3Dz7f0GuxdMOwKDn-180">
          <mxGeometry x="100" width="135.5" height="160" as="geometry" />
        </mxCell>
        <mxCell id="mJSx3Dz7f0GuxdMOwKDn-187" value="" style="shape=cube;whiteSpace=wrap;html=1;boundedLbl=1;backgroundOutline=1;darkOpacity=0.05;darkOpacity2=0.1;fillColor=#f8cecc;strokeColor=#b85450;" vertex="1" parent="mJSx3Dz7f0GuxdMOwKDn-186">
          <mxGeometry y="92.63157894736841" width="135.5" height="67.36842105263158" as="geometry" />
        </mxCell>
        <mxCell id="mJSx3Dz7f0GuxdMOwKDn-188" value="" style="shape=cube;whiteSpace=wrap;html=1;boundedLbl=1;backgroundOutline=1;darkOpacity=0.05;darkOpacity2=0.1;fillColor=#f8cecc;strokeColor=#b85450;" vertex="1" parent="mJSx3Dz7f0GuxdMOwKDn-186">
          <mxGeometry y="46.315789473684205" width="135.5" height="67.36842105263158" as="geometry" />
        </mxCell>
        <mxCell id="mJSx3Dz7f0GuxdMOwKDn-189" value="" style="shape=cube;whiteSpace=wrap;html=1;boundedLbl=1;backgroundOutline=1;darkOpacity=0.05;darkOpacity2=0.1;fillColor=#f8cecc;strokeColor=#b85450;" vertex="1" parent="mJSx3Dz7f0GuxdMOwKDn-186">
          <mxGeometry width="135.5" height="67.36842105263158" as="geometry" />
        </mxCell>
        <mxCell id="mJSx3Dz7f0GuxdMOwKDn-190" value="" style="group" vertex="1" connectable="0" parent="mJSx3Dz7f0GuxdMOwKDn-180">
          <mxGeometry width="125.5" height="160" as="geometry" />
        </mxCell>
        <mxCell id="mJSx3Dz7f0GuxdMOwKDn-191" value="" style="shape=cube;whiteSpace=wrap;html=1;boundedLbl=1;backgroundOutline=1;darkOpacity=0.05;darkOpacity2=0.1;fillColor=#f8cecc;strokeColor=#b85450;" vertex="1" parent="mJSx3Dz7f0GuxdMOwKDn-190">
          <mxGeometry y="92.63157894736841" width="125.5" height="67.36842105263158" as="geometry" />
        </mxCell>
        <mxCell id="mJSx3Dz7f0GuxdMOwKDn-192" value="" style="shape=cube;whiteSpace=wrap;html=1;boundedLbl=1;backgroundOutline=1;darkOpacity=0.05;darkOpacity2=0.1;fillColor=#f8cecc;strokeColor=#b85450;" vertex="1" parent="mJSx3Dz7f0GuxdMOwKDn-190">
          <mxGeometry y="46.315789473684205" width="125.5" height="67.36842105263158" as="geometry" />
        </mxCell>
        <mxCell id="mJSx3Dz7f0GuxdMOwKDn-193" value="" style="shape=cube;whiteSpace=wrap;html=1;boundedLbl=1;backgroundOutline=1;darkOpacity=0.05;darkOpacity2=0.1;fillColor=#f8cecc;strokeColor=#b85450;" vertex="1" parent="mJSx3Dz7f0GuxdMOwKDn-190">
          <mxGeometry width="125.5" height="67.36842105263158" as="geometry" />
        </mxCell>
        <mxCell id="mJSx3Dz7f0GuxdMOwKDn-233" value="" style="group" vertex="1" connectable="0" parent="1">
          <mxGeometry x="150" y="1478.5" width="325.5" height="217" as="geometry" />
        </mxCell>
        <mxCell id="mJSx3Dz7f0GuxdMOwKDn-234" value="" style="verticalLabelPosition=bottom;outlineConnect=0;align=center;dashed=0;html=1;verticalAlign=top;shape=mxgraph.pid.misc.box_truck;" vertex="1" parent="mJSx3Dz7f0GuxdMOwKDn-233">
          <mxGeometry width="325.5" height="217" as="geometry" />
        </mxCell>
        <mxCell id="mJSx3Dz7f0GuxdMOwKDn-235" value="" style="group" vertex="1" connectable="0" parent="mJSx3Dz7f0GuxdMOwKDn-233">
          <mxGeometry x="210" width="115.5" height="160" as="geometry" />
        </mxCell>
        <mxCell id="mJSx3Dz7f0GuxdMOwKDn-236" value="" style="shape=cube;whiteSpace=wrap;html=1;boundedLbl=1;backgroundOutline=1;darkOpacity=0.05;darkOpacity2=0.1;fillColor=#f8cecc;strokeColor=#b85450;" vertex="1" parent="mJSx3Dz7f0GuxdMOwKDn-235">
          <mxGeometry y="92.63157894736841" width="115.5" height="67.36842105263158" as="geometry" />
        </mxCell>
        <mxCell id="mJSx3Dz7f0GuxdMOwKDn-237" value="" style="shape=cube;whiteSpace=wrap;html=1;boundedLbl=1;backgroundOutline=1;darkOpacity=0.05;darkOpacity2=0.1;fillColor=#f8cecc;strokeColor=#b85450;" vertex="1" parent="mJSx3Dz7f0GuxdMOwKDn-235">
          <mxGeometry y="46.315789473684205" width="115.5" height="67.36842105263158" as="geometry" />
        </mxCell>
        <mxCell id="mJSx3Dz7f0GuxdMOwKDn-238" value="" style="shape=cube;whiteSpace=wrap;html=1;boundedLbl=1;backgroundOutline=1;darkOpacity=0.05;darkOpacity2=0.1;fillColor=#f8cecc;strokeColor=#b85450;" vertex="1" parent="mJSx3Dz7f0GuxdMOwKDn-235">
          <mxGeometry width="115.5" height="67.36842105263158" as="geometry" />
        </mxCell>
        <mxCell id="mJSx3Dz7f0GuxdMOwKDn-239" value="" style="group" vertex="1" connectable="0" parent="mJSx3Dz7f0GuxdMOwKDn-233">
          <mxGeometry x="100" width="135.5" height="160" as="geometry" />
        </mxCell>
        <mxCell id="mJSx3Dz7f0GuxdMOwKDn-240" value="" style="shape=cube;whiteSpace=wrap;html=1;boundedLbl=1;backgroundOutline=1;darkOpacity=0.05;darkOpacity2=0.1;fillColor=#f8cecc;strokeColor=#b85450;" vertex="1" parent="mJSx3Dz7f0GuxdMOwKDn-239">
          <mxGeometry y="92.63157894736841" width="135.5" height="67.36842105263158" as="geometry" />
        </mxCell>
        <mxCell id="mJSx3Dz7f0GuxdMOwKDn-241" value="" style="shape=cube;whiteSpace=wrap;html=1;boundedLbl=1;backgroundOutline=1;darkOpacity=0.05;darkOpacity2=0.1;fillColor=#f8cecc;strokeColor=#b85450;" vertex="1" parent="mJSx3Dz7f0GuxdMOwKDn-239">
          <mxGeometry y="46.315789473684205" width="135.5" height="67.36842105263158" as="geometry" />
        </mxCell>
        <mxCell id="mJSx3Dz7f0GuxdMOwKDn-242" value="" style="shape=cube;whiteSpace=wrap;html=1;boundedLbl=1;backgroundOutline=1;darkOpacity=0.05;darkOpacity2=0.1;fillColor=#f8cecc;strokeColor=#b85450;" vertex="1" parent="mJSx3Dz7f0GuxdMOwKDn-239">
          <mxGeometry width="135.5" height="67.36842105263158" as="geometry" />
        </mxCell>
        <mxCell id="mJSx3Dz7f0GuxdMOwKDn-243" value="" style="group" vertex="1" connectable="0" parent="mJSx3Dz7f0GuxdMOwKDn-233">
          <mxGeometry width="125.5" height="160" as="geometry" />
        </mxCell>
        <mxCell id="mJSx3Dz7f0GuxdMOwKDn-244" value="" style="shape=cube;whiteSpace=wrap;html=1;boundedLbl=1;backgroundOutline=1;darkOpacity=0.05;darkOpacity2=0.1;fillColor=#f8cecc;strokeColor=#b85450;" vertex="1" parent="mJSx3Dz7f0GuxdMOwKDn-243">
          <mxGeometry y="92.63157894736841" width="125.5" height="67.36842105263158" as="geometry" />
        </mxCell>
        <mxCell id="mJSx3Dz7f0GuxdMOwKDn-245" value="" style="shape=cube;whiteSpace=wrap;html=1;boundedLbl=1;backgroundOutline=1;darkOpacity=0.05;darkOpacity2=0.1;fillColor=#f8cecc;strokeColor=#b85450;" vertex="1" parent="mJSx3Dz7f0GuxdMOwKDn-243">
          <mxGeometry y="46.315789473684205" width="125.5" height="67.36842105263158" as="geometry" />
        </mxCell>
        <mxCell id="mJSx3Dz7f0GuxdMOwKDn-246" value="" style="shape=cube;whiteSpace=wrap;html=1;boundedLbl=1;backgroundOutline=1;darkOpacity=0.05;darkOpacity2=0.1;fillColor=#f8cecc;strokeColor=#b85450;" vertex="1" parent="mJSx3Dz7f0GuxdMOwKDn-243">
          <mxGeometry width="125.5" height="67.36842105263158" as="geometry" />
        </mxCell>
        <mxCell id="mJSx3Dz7f0GuxdMOwKDn-247" value="" style="group" vertex="1" connectable="0" parent="1">
          <mxGeometry x="160" y="650" width="325.5" height="217" as="geometry" />
        </mxCell>
        <mxCell id="mJSx3Dz7f0GuxdMOwKDn-248" value="" style="verticalLabelPosition=bottom;outlineConnect=0;align=center;dashed=0;html=1;verticalAlign=top;shape=mxgraph.pid.misc.box_truck;" vertex="1" parent="mJSx3Dz7f0GuxdMOwKDn-247">
          <mxGeometry width="325.5" height="217" as="geometry" />
        </mxCell>
        <mxCell id="mJSx3Dz7f0GuxdMOwKDn-249" value="" style="shape=cube;whiteSpace=wrap;html=1;boundedLbl=1;backgroundOutline=1;darkOpacity=0.05;darkOpacity2=0.1;fillColor=#d5e8d4;strokeColor=#82b366;" vertex="1" parent="mJSx3Dz7f0GuxdMOwKDn-247">
          <mxGeometry x="205.5" y="120" width="120" height="40" as="geometry" />
        </mxCell>
        <mxCell id="mJSx3Dz7f0GuxdMOwKDn-250" value="" style="shape=cube;whiteSpace=wrap;html=1;boundedLbl=1;backgroundOutline=1;darkOpacity=0.05;darkOpacity2=0.1;fillColor=#d5e8d4;strokeColor=#82b366;" vertex="1" parent="mJSx3Dz7f0GuxdMOwKDn-247">
          <mxGeometry x="205.5" y="100" width="120" height="40" as="geometry" />
        </mxCell>
        <mxCell id="mJSx3Dz7f0GuxdMOwKDn-251" value="" style="shape=cube;whiteSpace=wrap;html=1;boundedLbl=1;backgroundOutline=1;darkOpacity=0.05;darkOpacity2=0.1;fillColor=#d5e8d4;strokeColor=#82b366;" vertex="1" parent="mJSx3Dz7f0GuxdMOwKDn-247">
          <mxGeometry x="205.5" y="80" width="120" height="40" as="geometry" />
        </mxCell>
        <mxCell id="mJSx3Dz7f0GuxdMOwKDn-273" style="edgeStyle=orthogonalEdgeStyle;rounded=0;orthogonalLoop=1;jettySize=auto;html=1;" edge="1" parent="mJSx3Dz7f0GuxdMOwKDn-247" source="mJSx3Dz7f0GuxdMOwKDn-252">
          <mxGeometry relative="1" as="geometry">
            <mxPoint x="1101.4285714285713" y="70" as="targetPoint" />
          </mxGeometry>
        </mxCell>
        <mxCell id="mJSx3Dz7f0GuxdMOwKDn-252" value="" style="shape=cube;whiteSpace=wrap;html=1;boundedLbl=1;backgroundOutline=1;darkOpacity=0.05;darkOpacity2=0.1;fillColor=#d5e8d4;strokeColor=#82b366;" vertex="1" parent="mJSx3Dz7f0GuxdMOwKDn-247">
          <mxGeometry x="205.5" y="60" width="120" height="40" as="geometry" />
        </mxCell>
        <mxCell id="mJSx3Dz7f0GuxdMOwKDn-253" value="" style="shape=cube;whiteSpace=wrap;html=1;boundedLbl=1;backgroundOutline=1;darkOpacity=0.05;darkOpacity2=0.1;fillColor=#d5e8d4;strokeColor=#82b366;" vertex="1" parent="mJSx3Dz7f0GuxdMOwKDn-247">
          <mxGeometry x="205.5" y="40" width="120" height="40" as="geometry" />
        </mxCell>
        <mxCell id="mJSx3Dz7f0GuxdMOwKDn-254" value="" style="shape=cube;whiteSpace=wrap;html=1;boundedLbl=1;backgroundOutline=1;darkOpacity=0.05;darkOpacity2=0.1;fillColor=#d5e8d4;strokeColor=#82b366;" vertex="1" parent="mJSx3Dz7f0GuxdMOwKDn-247">
          <mxGeometry x="205.5" y="20" width="120" height="40" as="geometry" />
        </mxCell>
        <mxCell id="mJSx3Dz7f0GuxdMOwKDn-255" value="" style="shape=cube;whiteSpace=wrap;html=1;boundedLbl=1;backgroundOutline=1;darkOpacity=0.05;darkOpacity2=0.1;fillColor=#d5e8d4;strokeColor=#82b366;" vertex="1" parent="mJSx3Dz7f0GuxdMOwKDn-247">
          <mxGeometry x="205.5" width="120" height="40" as="geometry" />
        </mxCell>
        <mxCell id="mJSx3Dz7f0GuxdMOwKDn-256" value="" style="group" vertex="1" connectable="0" parent="mJSx3Dz7f0GuxdMOwKDn-247">
          <mxGeometry x="105.5" width="120" height="160" as="geometry" />
        </mxCell>
        <mxCell id="mJSx3Dz7f0GuxdMOwKDn-257" value="" style="shape=cube;whiteSpace=wrap;html=1;boundedLbl=1;backgroundOutline=1;darkOpacity=0.05;darkOpacity2=0.1;fillColor=#d5e8d4;strokeColor=#82b366;" vertex="1" parent="mJSx3Dz7f0GuxdMOwKDn-256">
          <mxGeometry y="120" width="120" height="40" as="geometry" />
        </mxCell>
        <mxCell id="mJSx3Dz7f0GuxdMOwKDn-258" value="" style="shape=cube;whiteSpace=wrap;html=1;boundedLbl=1;backgroundOutline=1;darkOpacity=0.05;darkOpacity2=0.1;fillColor=#d5e8d4;strokeColor=#82b366;" vertex="1" parent="mJSx3Dz7f0GuxdMOwKDn-256">
          <mxGeometry y="100" width="120" height="40" as="geometry" />
        </mxCell>
        <mxCell id="mJSx3Dz7f0GuxdMOwKDn-259" value="" style="shape=cube;whiteSpace=wrap;html=1;boundedLbl=1;backgroundOutline=1;darkOpacity=0.05;darkOpacity2=0.1;fillColor=#d5e8d4;strokeColor=#82b366;" vertex="1" parent="mJSx3Dz7f0GuxdMOwKDn-256">
          <mxGeometry y="80" width="120" height="40" as="geometry" />
        </mxCell>
        <mxCell id="mJSx3Dz7f0GuxdMOwKDn-260" value="" style="shape=cube;whiteSpace=wrap;html=1;boundedLbl=1;backgroundOutline=1;darkOpacity=0.05;darkOpacity2=0.1;fillColor=#d5e8d4;strokeColor=#82b366;" vertex="1" parent="mJSx3Dz7f0GuxdMOwKDn-256">
          <mxGeometry y="60" width="120" height="40" as="geometry" />
        </mxCell>
        <mxCell id="mJSx3Dz7f0GuxdMOwKDn-261" value="" style="shape=cube;whiteSpace=wrap;html=1;boundedLbl=1;backgroundOutline=1;darkOpacity=0.05;darkOpacity2=0.1;fillColor=#d5e8d4;strokeColor=#82b366;" vertex="1" parent="mJSx3Dz7f0GuxdMOwKDn-256">
          <mxGeometry y="40" width="120" height="40" as="geometry" />
        </mxCell>
        <mxCell id="mJSx3Dz7f0GuxdMOwKDn-262" value="" style="shape=cube;whiteSpace=wrap;html=1;boundedLbl=1;backgroundOutline=1;darkOpacity=0.05;darkOpacity2=0.1;fillColor=#d5e8d4;strokeColor=#82b366;" vertex="1" parent="mJSx3Dz7f0GuxdMOwKDn-256">
          <mxGeometry y="20" width="120" height="40" as="geometry" />
        </mxCell>
        <mxCell id="mJSx3Dz7f0GuxdMOwKDn-263" value="" style="shape=cube;whiteSpace=wrap;html=1;boundedLbl=1;backgroundOutline=1;darkOpacity=0.05;darkOpacity2=0.1;fillColor=#d5e8d4;strokeColor=#82b366;" vertex="1" parent="mJSx3Dz7f0GuxdMOwKDn-256">
          <mxGeometry width="120" height="40" as="geometry" />
        </mxCell>
        <mxCell id="mJSx3Dz7f0GuxdMOwKDn-264" value="" style="group" vertex="1" connectable="0" parent="mJSx3Dz7f0GuxdMOwKDn-256">
          <mxGeometry x="-100" width="120" height="160" as="geometry" />
        </mxCell>
        <mxCell id="mJSx3Dz7f0GuxdMOwKDn-265" value="" style="shape=cube;whiteSpace=wrap;html=1;boundedLbl=1;backgroundOutline=1;darkOpacity=0.05;darkOpacity2=0.1;fillColor=#d5e8d4;strokeColor=#82b366;" vertex="1" parent="mJSx3Dz7f0GuxdMOwKDn-264">
          <mxGeometry y="120" width="120" height="40" as="geometry" />
        </mxCell>
        <mxCell id="mJSx3Dz7f0GuxdMOwKDn-266" value="" style="shape=cube;whiteSpace=wrap;html=1;boundedLbl=1;backgroundOutline=1;darkOpacity=0.05;darkOpacity2=0.1;fillColor=#d5e8d4;strokeColor=#82b366;" vertex="1" parent="mJSx3Dz7f0GuxdMOwKDn-264">
          <mxGeometry y="100" width="120" height="40" as="geometry" />
        </mxCell>
        <mxCell id="mJSx3Dz7f0GuxdMOwKDn-267" value="" style="shape=cube;whiteSpace=wrap;html=1;boundedLbl=1;backgroundOutline=1;darkOpacity=0.05;darkOpacity2=0.1;fillColor=#d5e8d4;strokeColor=#82b366;" vertex="1" parent="mJSx3Dz7f0GuxdMOwKDn-264">
          <mxGeometry y="80" width="120" height="40" as="geometry" />
        </mxCell>
        <mxCell id="mJSx3Dz7f0GuxdMOwKDn-268" value="" style="shape=cube;whiteSpace=wrap;html=1;boundedLbl=1;backgroundOutline=1;darkOpacity=0.05;darkOpacity2=0.1;fillColor=#d5e8d4;strokeColor=#82b366;" vertex="1" parent="mJSx3Dz7f0GuxdMOwKDn-264">
          <mxGeometry y="60" width="120" height="40" as="geometry" />
        </mxCell>
        <mxCell id="mJSx3Dz7f0GuxdMOwKDn-269" value="" style="shape=cube;whiteSpace=wrap;html=1;boundedLbl=1;backgroundOutline=1;darkOpacity=0.05;darkOpacity2=0.1;fillColor=#d5e8d4;strokeColor=#82b366;" vertex="1" parent="mJSx3Dz7f0GuxdMOwKDn-264">
          <mxGeometry y="40" width="120" height="40" as="geometry" />
        </mxCell>
        <mxCell id="mJSx3Dz7f0GuxdMOwKDn-270" value="" style="shape=cube;whiteSpace=wrap;html=1;boundedLbl=1;backgroundOutline=1;darkOpacity=0.05;darkOpacity2=0.1;fillColor=#d5e8d4;strokeColor=#82b366;" vertex="1" parent="mJSx3Dz7f0GuxdMOwKDn-264">
          <mxGeometry y="20" width="120" height="40" as="geometry" />
        </mxCell>
        <mxCell id="mJSx3Dz7f0GuxdMOwKDn-271" value="" style="shape=cube;whiteSpace=wrap;html=1;boundedLbl=1;backgroundOutline=1;darkOpacity=0.05;darkOpacity2=0.1;fillColor=#d5e8d4;strokeColor=#82b366;" vertex="1" parent="mJSx3Dz7f0GuxdMOwKDn-264">
          <mxGeometry width="120" height="40" as="geometry" />
        </mxCell>
        <mxCell id="mJSx3Dz7f0GuxdMOwKDn-272" style="edgeStyle=orthogonalEdgeStyle;rounded=0;orthogonalLoop=1;jettySize=auto;html=1;" edge="1" parent="1" source="mJSx3Dz7f0GuxdMOwKDn-237" target="mJSx3Dz7f0GuxdMOwKDn-5">
          <mxGeometry relative="1" as="geometry" />
        </mxCell>
        <mxCell id="mJSx3Dz7f0GuxdMOwKDn-274" style="edgeStyle=orthogonalEdgeStyle;rounded=0;orthogonalLoop=1;jettySize=auto;html=1;" edge="1" parent="1" source="mJSx3Dz7f0GuxdMOwKDn-16" target="mJSx3Dz7f0GuxdMOwKDn-52">
          <mxGeometry relative="1" as="geometry" />
        </mxCell>
        <mxCell id="mJSx3Dz7f0GuxdMOwKDn-276" style="edgeStyle=orthogonalEdgeStyle;rounded=0;orthogonalLoop=1;jettySize=auto;html=1;" edge="1" parent="1" source="mJSx3Dz7f0GuxdMOwKDn-52" target="mJSx3Dz7f0GuxdMOwKDn-116">
          <mxGeometry relative="1" as="geometry" />
        </mxCell>
        <mxCell id="mJSx3Dz7f0GuxdMOwKDn-277" style="edgeStyle=orthogonalEdgeStyle;rounded=0;orthogonalLoop=1;jettySize=auto;html=1;" edge="1" parent="1" source="mJSx3Dz7f0GuxdMOwKDn-116" target="mJSx3Dz7f0GuxdMOwKDn-141">
          <mxGeometry relative="1" as="geometry" />
        </mxCell>
        <mxCell id="mJSx3Dz7f0GuxdMOwKDn-278" style="edgeStyle=orthogonalEdgeStyle;rounded=0;orthogonalLoop=1;jettySize=auto;html=1;entryX=0.005;entryY=0.629;entryDx=0;entryDy=0;entryPerimeter=0;" edge="1" parent="1" source="mJSx3Dz7f0GuxdMOwKDn-15" target="mJSx3Dz7f0GuxdMOwKDn-110">
          <mxGeometry relative="1" as="geometry" />
        </mxCell>
        <mxCell id="mJSx3Dz7f0GuxdMOwKDn-279" style="edgeStyle=orthogonalEdgeStyle;rounded=0;orthogonalLoop=1;jettySize=auto;html=1;entryX=0;entryY=0;entryDx=0;entryDy=47.368421052631575;entryPerimeter=0;" edge="1" parent="1" source="mJSx3Dz7f0GuxdMOwKDn-101" target="mJSx3Dz7f0GuxdMOwKDn-178">
          <mxGeometry relative="1" as="geometry" />
        </mxCell>
        <mxCell id="mJSx3Dz7f0GuxdMOwKDn-280" style="edgeStyle=orthogonalEdgeStyle;rounded=0;orthogonalLoop=1;jettySize=auto;html=1;entryX=0;entryY=0;entryDx=0;entryDy=47.368421052631575;entryPerimeter=0;" edge="1" parent="1" source="mJSx3Dz7f0GuxdMOwKDn-170" target="mJSx3Dz7f0GuxdMOwKDn-192">
          <mxGeometry relative="1" as="geometry" />
        </mxCell>
        <mxCell id="mJSx3Dz7f0GuxdMOwKDn-287" style="rounded=0;orthogonalLoop=1;jettySize=auto;html=1;strokeColor=default;" edge="1" parent="1" source="mJSx3Dz7f0GuxdMOwKDn-283" target="mJSx3Dz7f0GuxdMOwKDn-8">
          <mxGeometry relative="1" as="geometry" />
        </mxCell>
        <mxCell id="mJSx3Dz7f0GuxdMOwKDn-293" value="100" style="edgeLabel;html=1;align=center;verticalAlign=middle;resizable=0;points=[];" vertex="1" connectable="0" parent="mJSx3Dz7f0GuxdMOwKDn-287">
          <mxGeometry x="0.3174" y="1" relative="1" as="geometry">
            <mxPoint as="offset" />
          </mxGeometry>
        </mxCell>
        <mxCell id="mJSx3Dz7f0GuxdMOwKDn-283" value="" style="shape=image;html=1;verticalAlign=top;verticalLabelPosition=bottom;labelBackgroundColor=#ffffff;imageAspect=0;aspect=fixed;image=https://cdn0.iconfinder.com/data/icons/phosphor-thin-vol-2/256/factory-thin-128.png" vertex="1" parent="1">
          <mxGeometry x="1230" y="55" width="90" height="90" as="geometry" />
        </mxCell>
        <mxCell id="mJSx3Dz7f0GuxdMOwKDn-284" value="" style="shape=image;html=1;verticalAlign=top;verticalLabelPosition=bottom;labelBackgroundColor=#ffffff;imageAspect=0;aspect=fixed;image=https://cdn0.iconfinder.com/data/icons/phosphor-thin-vol-2/256/factory-thin-128.png" vertex="1" parent="1">
          <mxGeometry x="1960" y="25" width="90" height="90" as="geometry" />
        </mxCell>
        <mxCell id="mJSx3Dz7f0GuxdMOwKDn-285" value="" style="shape=image;html=1;verticalAlign=top;verticalLabelPosition=bottom;labelBackgroundColor=#ffffff;imageAspect=0;aspect=fixed;image=https://cdn0.iconfinder.com/data/icons/phosphor-thin-vol-2/256/factory-thin-128.png" vertex="1" parent="1">
          <mxGeometry x="1960" y="170" width="90" height="90" as="geometry" />
        </mxCell>
        <mxCell id="mJSx3Dz7f0GuxdMOwKDn-286" value="" style="shape=image;html=1;verticalAlign=top;verticalLabelPosition=bottom;labelBackgroundColor=#ffffff;imageAspect=0;aspect=fixed;image=https://cdn0.iconfinder.com/data/icons/phosphor-thin-vol-2/256/factory-thin-128.png" vertex="1" parent="1">
          <mxGeometry x="1900" y="280" width="90" height="90" as="geometry" />
        </mxCell>
      </root>
    </mxGraphModel>
  </diagram>
</mxfile>
